#!OML:ASF E:\motion texture\Top Level 1\Subject 1\Session 1\male.ASF
:FULLY-SPECIFIED
:DEGREES
162
root 9.42525 17.6016 7.02021 281.575 -88.8964 -275.252
lowerback -0.846459 -2.6762 -0.999235
upperback -3.58886 -3.58801 2.57205
thorax -2.99068 -1.75537 3.26686
lowerneck -11.5792 -4.34297 -7.85423
upperneck 25.2664 -3.24915 -7.57545
head 10.0407 -3.39861 -1.79229
rclavicle 3.47873e-016 -1.11319e-014
rhumerus -11.8108 -20.297 -63.1382
rradius 118.476
rwrist -7.82169
rhand -25.0383 -30.461
rfingers 7.12502
rthumb 1.47459 -60.4356
lclavicle 3.47873e-016 -1.11319e-014
lhumerus -6.24549 -5.46946 74.5295
lradius 111.666
lwrist -12.9223
lhand -22.6907 25.5089
lfingers 7.12502
lthumb 3.74175 55.4558
rfemur -32.7466 0.986226 13.0585
rtibia 11.4125
rfoot -5.55808 -21.4101
rtoes 0.320159
lfemur 3.04577 -3.92105 -23.1395
ltibia 13.5955
lfoot -16.7023 3.63301
ltoes -7.61664
163
root 9.27234 17.5773 7.00226 294.301 -88.7805 -287.853
lowerback -0.911068 -2.72529 -1.06216
upperback -3.58693 -3.65438 2.55057
thorax -2.94574 -1.78765 3.27675
lowerneck -11.5479 -4.37998 -7.87636
upperneck 25.1344 -3.32526 -7.46176
head 9.98829 -3.41186 -1.751
rclavicle 1.9456e-014 -2.38542e-015
rhumerus -12.0823 -21.118 -62.9858
rradius 117.816
rwrist -8.03504
rhand -25.088 -30.5481
rfingers 7.12502
rthumb 1.42657 -60.5231
lclavicle 1.9456e-014 -2.38542e-015
lhumerus -5.84399 -5.85718 74.8921
lradius 111.546
lwrist -12.3266
lhand -22.4455 25.4759
lfingers 7.12502
lthumb 3.97853 55.4185
rfemur -32.6353 1.83016 12.471
rtibia 10.1987
rfoot -6.35012 -21.8018
rtoes -0.850048
lfemur 3.32861 -3.95831 -23.1167
ltibia 13.8522
lfoot -17.0015 3.47431
ltoes -8.24916
164
root 9.11916 17.5536 6.98388 303.904 -88.652 -297.344
lowerback -0.984213 -2.76497 -1.10201
upperback -3.55958 -3.70754 2.53993
thorax -2.87116 -1.81432 3.28316
lowerneck -11.5523 -4.41452 -7.90001
upperneck 25.0078 -3.38923 -7.36016
head 9.94493 -3.42173 -1.71377
rclavicle 1.4797e-014 -2.94201e-014
rhumerus -12.3517 -21.8836 -62.8653
rradius 117.039
rwrist -8.23477
rhand -25.0967 -30.6403
rfingers 7.12502
rthumb 1.41821 -60.6153
lclavicle 1.4797e-014 -2.94201e-014
lhumerus -5.4983 -6.23731 75.3339
lradius 111.328
lwrist -11.6623
lhand -22.1883 25.4661
lfingers 7.12502
lthumb 4.2269 55.4039
rfemur -32.7305 2.01514 12.277
rtibia 9.76242
rfoot -7.01655 -21.6524
rtoes -1.92508
lfemur 3.59235 -4.03308 -23.0646
ltibia 14.1669
lfoot -17.2938 3.31672
ltoes -8.93352
165
root 8.96488 17.5312 6.96501 311.272 -88.5319 -304.621
lowerback -1.04534 -2.79509 -1.11731
upperback -3.52192 -3.74747 2.53845
thorax -2.79439 -1.83501 3.28538
lowerneck -11.5452 -4.43816 -7.92197
upperneck 24.875 -3.43755 -7.26999
head 9.89718 -3.42548 -1.6785
rclavicle 9.49197e-015 -6.36111e-015
rhumerus -12.6527 -22.5755 -62.7579
rradius 116.156
rwrist -8.43524
rhand -25.0031 -30.7872
rfingers 7.12502
rthumb 1.50854 -60.7616
lclavicle 9.49197e-015 -6.36111e-015
lhumerus -5.23836 -6.61123 75.8545
lradius 111.025
lwrist -10.9187
lhand -21.896 25.4927
lfingers 7.12502
lthumb 4.50918 55.4247
rfemur -32.9801 1.60143 12.4711
rtibia 10.0213
rfoot -7.38778 -21.0005
rtoes -2.69529
lfemur 3.85536 -4.14303 -22.9857
ltibia 14.5283
lfoot -17.5725 3.1528
ltoes -9.67562
166
root 8.80958 17.5103 6.94587 316.805 -88.4422 -310.083
lowerback -1.08064 -2.81049 -1.10185
upperback -3.48409 -3.76745 2.54321
thorax -2.73476 -1.84621 3.27816
lowerneck -11.5615 -4.45509 -7.9445
upperneck 24.7778 -3.4705 -7.18927
head 9.86687 -3.42586 -1.64689
rclavicle 6.32384e-015 -1.03368e-014
rhumerus -12.9861 -23.1875 -62.6642
rradius 115.17
rwrist -8.65993
rhand -24.8868 -30.9674
rfingers 7.12502
rthumb 1.62085 -60.941
lclavicle 6.32384e-015 -1.03368e-014
lhumerus -5.09093 -6.97994 76.4497
lradius 110.643
lwrist -10.1205
lhand -21.5847 25.5543
lfingers 7.12502
lthumb 4.80977 55.4797
rfemur -33.3533 0.794678 12.9677
rtibia 10.8615
rfoot -7.40606 -20.0126
rtoes -3.13086
lfemur 4.12103 -4.27284 -22.8826
ltibia 14.9288
lfoot -17.8174 2.98888
ltoes -10.5104
167
root 8.65185 17.4913 6.92577 320.941 -88.3751 -314.18
lowerback -1.07341 -2.80869 -1.07591
upperback -3.43887 -3.76417 2.54542
thorax -2.6937 -1.84569 3.26451
lowerneck -11.6099 -4.46716 -7.95841
upperneck 24.705 -3.49198 -7.11374
head 9.85121 -3.42237 -1.61911
rclavicle 3.40465e-014 -2.54444e-014
rhumerus -13.3478 -23.7424 -62.5776
rradius 114.09
rwrist -8.94227
rhand -24.7397 -31.1913
rfingers 7.12502
rthumb 1.76294 -61.1637
lclavicle 3.40465e-014 -2.54444e-014
lhumerus -5.04011 -7.35507 77.1172
lradius 110.171
lwrist -9.28347
lhand -21.2607 25.6217
lfingers 7.12502
lthumb 5.12267 55.5398
rfemur -33.748 -0.0835963 13.5874
rtibia 12.0652
rfoot -7.10946 -18.9744
rtoes -3.09043
lfemur 4.41178 -4.41101 -22.7745
ltibia 15.3602
lfoot -18.0338 2.82303
ltoes -11.4106
168
root 8.49192 17.4743 6.90457 323.982 -88.3294 -317.207
lowerback -1.02875 -2.81141 -1.06376
upperback -3.43201 -3.76726 2.56032
thorax -2.71131 -1.84705 3.27543
lowerneck -11.561 -4.45462 -7.99957
upperneck 24.6464 -3.48932 -7.03729
head 9.823 -3.41168 -1.58148
rclavicle 2.56277e-014 -1.98785e-014
rhumerus -13.7888 -24.1389 -62.4783
rradius 112.913
rwrist -9.31237
rhand -24.5871 -31.4768
rfingers 7.12502
rthumb 1.91032 -61.4479
lclavicle 2.56277e-014 -1.98785e-014
lhumerus -5.21038 -7.68997 77.8533
lradius 109.641
lwrist -8.40148
lhand -20.9407 25.7142
lfingers 7.12502
lthumb 5.43161 55.6246
rfemur -34.1255 -0.840856 14.2106
rtibia 13.4839
rfoot -6.61872 -18.036
rtoes -2.66778
lfemur 4.72028 -4.54957 -22.6684
ltibia 15.8208
lfoot -18.2002 2.66135
ltoes -12.3979
